<svg width="48" height="36" viewBox="0 0 48 36" fill="none" xmlns="http://www.w3.org/2000/svg">
<path d="M21.7508 0.275799C11.6954 1.28985 4.13637 9.73998 2.20703 14.2849C2.0316 14.6981 1.82157 15.1006 1.72812 15.5397C1.59505 16.1649 1.69699 17.0056 2.6116 17.6458C3.80516 18.4813 5.73684 18.4587 6.73767 18.3227C6.80476 18.3136 6.84664 18.3966 6.79876 18.4445C6.79511 18.4481 6.79129 18.4512 6.78693 18.454C4.31893 20.0115 -0.475955 23.9856 0.0382709 27.4566C0.472387 30.3869 2.53902 30.4718 3.97962 30.0083C4.47483 29.8489 4.89812 29.5322 5.28479 29.1842L5.73613 28.778C6.11773 28.4346 6.45484 28.0447 6.73962 27.6176L7.27578 26.8133L8.88411 24.24L10.4924 22.1491C10.9749 21.6666 12.2616 20.4765 13.5483 19.5758C14.6812 18.7828 17.1441 18.6797 18.6315 18.7396C18.9954 18.7542 19.3551 18.8133 19.7011 18.9273C21.7983 19.6188 24.9489 21.4433 24.0025 24.4008C22.9731 27.6175 21.1075 28.5289 20.3033 28.5825H18.5341C17.8908 28.5825 16.3146 28.8077 15.1566 29.7083C13.9986 30.609 14.3524 32.0136 14.6741 32.6033C14.9958 33.1394 16.186 34.4047 18.3733 35.1767C20.5606 35.9487 23.3591 35.2839 24.485 34.855L25.9325 34.2117L27.0583 33.7292L28.345 33.0858L31.5616 31.4775L33.5877 30.731C34.2688 30.4801 34.989 30.3517 35.7149 30.3517H36.065H39.8982C40.2371 30.3517 40.5746 30.3819 40.9108 30.4248C42.0153 30.5656 43.8138 30.6808 44.9108 30.3517C46.1975 29.9657 46.6264 28.6897 46.68 28.1V27.6175V27.2958V27.1611C46.68 26.8242 46.6257 26.4896 46.5191 26.17L46.3583 25.3658L46.2136 24.9316C46.2029 24.8996 46.1975 24.8661 46.1975 24.8324C46.1975 24.7613 46.2217 24.6922 46.2662 24.6366L46.7712 24.0053C46.8175 23.9475 46.8575 23.8849 46.8906 23.8187C46.9636 23.6727 47.0016 23.5117 47.0016 23.3484V22.9923C47.0016 22.8644 46.9508 22.7416 46.8603 22.6512L46.6693 22.4601C46.5864 22.3772 46.5864 22.2428 46.6693 22.1598C46.6764 22.1527 46.684 22.1461 46.692 22.1401L47.0994 21.8346C47.2404 21.7289 47.3233 21.563 47.3233 21.3868C47.3233 21.2559 47.2774 21.1291 47.1936 21.0285L46.7593 20.5073C46.6041 20.3211 46.5191 20.0864 46.5191 19.8441C46.5191 19.5693 46.6213 19.2997 46.7915 19.084C46.9694 18.8585 47.2434 18.503 47.645 17.9675C48.1994 17.2283 48.0128 16.5554 47.7047 16.1157C47.4929 15.8134 47.1572 15.6328 46.8271 15.4677L45.8579 14.9831C45.3364 14.7223 44.7471 14.5456 44.3426 14.1257C43.1275 12.8646 41.8804 9.4129 41.2116 7.67414C40.4075 5.5833 36.9227 2.95636 35.2608 2.04497C31.5295 -0.399701 24.6994 -0.15309 21.7508 0.275799Z" fill="#0084CE"/>
</svg>
